<?xml version="1.0" standalone="no"?>
<!DOCTYPE svg PUBLIC "-//W3C//DTD SVG 20010904//EN"
 "http://www.w3.org/TR/2001/REC-SVG-20010904/DTD/svg10.dtd">
<svg version="1.0" xmlns="http://www.w3.org/2000/svg"
 width="26.000000pt" height="25.000000pt" viewBox="0 0 26.000000 25.000000"
 preserveAspectRatio="xMidYMid meet">

<g transform="translate(0.000000,25.000000) scale(0.100000,-0.100000)"
fill="#000000" stroke="none">
<path d="M66 179 c-33 -39 -33 -69 0 -108 52 -62 148 -27 148 54 0 81 -96 116
-148 54z m100 10 c3 -6 0 -15 -7 -20 -10 -6 -8 -9 9 -9 12 0 22 -5 22 -11 0
-5 -5 -7 -10 -4 -11 7 -40 -12 -40 -25 0 -4 9 -10 20 -13 16 -4 18 -9 11 -29
-12 -33 -56 -32 -56 1 0 18 -7 26 -27 32 -15 4 -29 4 -32 1 -3 -3 -6 -2 -6 1
0 14 65 72 77 69 7 -2 13 2 13 8 0 13 17 13 26 -1z m-71 -127 c-6 -6 -35 18
-35 29 0 5 9 1 20 -8 11 -9 17 -19 15 -21z"/>
</g>
</svg>
